<?xml version="1.0" encoding="UTF-8"?>
<!DOCTYPE svg PUBLIC "-//W3C//DTD SVG 1.1//EN" "http://www.w3.org/Graphics/SVG/1.1/DTD/svg11.dtd">
<!-- Creator: CorelDRAW X7 -->
<svg xmlns="http://www.w3.org/2000/svg" xml:space="preserve" width="98.3234mm" height="60.9632mm" version="1.1" style="shape-rendering:geometricPrecision; text-rendering:geometricPrecision; image-rendering:optimizeQuality; fill-rule:evenodd; clip-rule:evenodd"
viewBox="0 0 9020 5593"
 xmlns:xlink="http://www.w3.org/1999/xlink">
 <defs>
  <style type="text/css">
   <![CDATA[
    .str0 {stroke:#FEFEFE;stroke-width:18.3479}
    .str1 {stroke:#FEFEFE;stroke-width:6.99056}
    .fil0 {fill:none}
    .fil2 {fill:#FEFEFE}
    .fil1 {fill:#2B2A29}
   ]]>
  </style>
 </defs>
 <g id="Capa_x0020_1">
  <metadata id="CorelCorpID_0Corel-Layer"/>
  <line class="fil0 str0" x1="488" y1="3923" x2="488" y2= "4054" />
  <polyline class="fil0 str0" points="105,3656 9,3653 9,4091 "/>
  <path class="fil0 str0" d="M105 3656c46,22 92,44 116,54 23,10 25,9 51,25 26,16 76,51 112,79 36,29 59,52 75,69 15,17 22,29 29,40"/>
  <line class="fil0 str0" x1="1774" y1="4951" x2="137" y2= "4570" />
  <line class="fil0 str0" x1="105" y1="4924" x2="1934" y2= "5420" />
  <line class="fil0 str0" x1="2187" y1="5413" x2="2772" y2= "5192" />
  <line class="fil0 str0" x1="2457" y1="4322" x2="2123" y2= "4862" />
  <line class="fil0 str0" x1="13" y1="4595" x2="13" y2= "4887" />
  <path class="fil0 str0" d="M137 4570c-27,-2 -53,-5 -74,-1 -21,5 -35,15 -50,26"/>
  <path class="fil0 str0" d="M105 4924c-20,-3 -40,-6 -55,-12 -16,-7 -26,-16 -37,-25"/>
  <path class="fil0 str0" d="M1934 5420c40,8 80,15 122,14 42,-1 86,-11 131,-21"/>
  <path class="fil0 str0" d="M1774 4951c78,1 157,2 215,-13 58,-15 96,-45 134,-76"/>
  <line class="fil0 str0" x1="3102" y1="5579" x2="3807" y2= "5584" />
  <line class="fil0 str0" x1="4262" y1="4435" x2="6813" y2= "3885" />
  <line class="fil0 str0" x1="7923" y1="3644" x2="8597" y2= "3511" />
  <line class="fil0 str0" x1="128" y1="3043" x2="1784" y2= "3127" />
  <line class="fil0 str0" x1="2286" y1="1912" x2="1873" y2= "3033" />
  <line class="fil0 str0" x1="909" y1="1785" x2="2202" y2= "1647" />
  <line class="fil0 str0" x1="6577" y1="2871" x2="8469" y2= "3063" />
  <line class="fil0 str0" x1="2561" y1="389" x2="4483" y2= "69" />
  <line class="fil0 str0" x1="2369" y1="1426" x2="3628" y2= "1539" />
  <line class="fil0 str0" x1="2286" y1="610" x2="2207" y2= "1367" />
  <line class="fil0 str0" x1="4161" y1="3616" x2="4072" y2= "2318" />
  <path class="fil0 str0" d="M2457 4322c62,-75 123,-150 193,-211 69,-61 146,-109 221,-147 76,-39 149,-68 235,-98 86,-29 185,-59 275,-83 90,-25 172,-44 259,-64 87,-20 178,-39 266,-57 88,-17 171,-32 255,-46"/>
  <path class="fil0 str0" d="M4072 2318c-1,-68 -3,-136 -12,-202 -9,-66 -25,-130 -41,-184 -16,-54 -30,-98 -46,-137 -15,-38 -32,-71 -54,-100 -22,-30 -50,-56 -79,-76 -30,-19 -61,-32 -97,-45 -35,-12 -75,-24 -115,-35"/>
  <path class="fil0 str0" d="M909 1785c-29,4 -59,8 -82,18 -24,10 -42,25 -64,47 -22,22 -47,51 -71,81 -24,30 -47,61 -76,102 -29,42 -63,93 -91,138 -29,46 -51,84 -90,153 -39,69 -96,168 -141,250 -44,82 -77,148 -104,204 -27,55 -48,101 -63,143 -15,43 -23,81 -22,101 2,19 12,20 23,21"/>
  <path class="fil0 str0" d="M1784 3127c18,-2 36,-4 51,-19 15,-16 26,-45 38,-75"/>
  <path class="fil0 str0" d="M2286 1912c7,-18 14,-35 20,-60 6,-24 10,-54 12,-80 1,-27 0,-49 -2,-66 -3,-17 -7,-29 -17,-38 -9,-8 -25,-12 -42,-15 -17,-3 -36,-4 -55,-6"/>
  <path class="fil1 str0" d="M2930 1746c141,6 405,19 556,29 152,10 193,17 222,26 29,10 46,23 64,39 18,15 37,32 50,48 13,15 20,28 27,56 8,28 14,72 22,213 8,141 16,380 21,542 5,162 6,248 5,308 -2,60 -6,94 -14,123 -7,28 -16,51 -30,75 -13,23 -29,47 -46,68 -17,22 -34,40 -52,58 -17,17 -35,34 -56,48 -21,15 -47,28 -85,39 -38,10 -89,18 -260,39 -171,22 -462,58 -625,77 -162,20 -197,22 -230,21 -33,0 -63,-4 -87,-6 -23,-3 -40,-5 -55,-10 -15,-4 -29,-11 -45,-21 -15,-10 -31,-25 -43,-41 -11,-17 -18,-37 -23,-58 -5,-22 -8,-45 -11,-74 -3,-30 -5,-66 -6,-107 -1,-42 -1,-89 -1,-142 -1,-54 -2,-114 3,-168 5,-55 16,-104 26,-153 10,-48 20,-96 31,-145 10,-49 21,-98 34,-146 12,-49 26,-97 40,-147 14,-49 27,-101 41,-147 14,-46 29,-86 44,-119 14,-32 27,-58 39,-82 12,-25 23,-49 37,-72 14,-23 32,-45 50,-65 18,-21 36,-41 56,-56 20,-15 40,-26 61,-35 20,-9 39,-15 59,-18 20,-4 39,-4 181,3z"/>
  <path class="fil0 str0" d="M3102 5579c-24,-13 -48,-26 -68,-37 -20,-11 -38,-21 -53,-34 -14,-14 -26,-30 -38,-45 -13,-14 -25,-28 -36,-43 -11,-15 -22,-33 -31,-48 -8,-15 -13,-28 -21,-41 -8,-13 -17,-27 -25,-40 -8,-14 -13,-28 -17,-44 -4,-17 -6,-35 -13,-45 -6,-9 -17,-10 -28,-10"/>
  <path class="fil0 str0" d="M4262 4435c-26,5 -52,10 -69,19 -17,9 -26,24 -27,59 0,36 8,92 12,150 4,57 5,115 5,167 -1,52 -3,98 -8,145 -5,48 -12,97 -23,139 -11,43 -25,79 -38,113 -13,34 -24,65 -38,94 -14,28 -31,53 -51,81 -20,28 -42,59 -64,84 -23,25 -47,45 -73,60 -26,15 -53,26 -81,38"/>
  <line class="fil0 str0" x1="7139" y1="4362" x2="7642" y2= "4366" />
  <path class="fil0 str0" d="M7139 4362c-22,-8 -44,-16 -65,-32 -21,-16 -40,-39 -57,-62 -18,-24 -32,-47 -46,-72 -14,-25 -27,-53 -38,-77 -11,-25 -19,-46 -27,-71 -7,-26 -14,-58 -19,-90 -5,-33 -8,-66 -11,-100"/>
  <path class="fil0 str0" d="M6813 3885c21,-9 42,-18 63,-27"/>
  <path class="fil0 str0" d="M7642 4366c18,-16 37,-32 56,-50 20,-19 41,-39 58,-60 17,-21 30,-42 42,-62 12,-21 23,-41 33,-63 9,-23 18,-48 28,-75 10,-27 22,-56 27,-125 5,-68 4,-176 3,-285"/>
  <path class="fil0 str0" d="M7923 3644c-11,1 -23,2 -34,2"/>
  <path class="fil0 str0" d="M8597 3511c34,-12 68,-25 102,-42 33,-17 65,-39 87,-61 21,-22 32,-44 39,-62 7,-18 10,-32 9,-47 0,-16 -3,-33 -10,-48 -7,-14 -17,-27 -31,-40 -14,-14 -30,-28 -52,-40 -22,-13 -49,-24 -78,-36 -29,-12 -60,-25 -93,-37 -32,-13 -67,-24 -101,-35"/>
  <path class="fil0 str0" d="M6577 2871c-47,-10 -93,-20 -128,-30 -35,-11 -58,-22 -77,-32 -19,-9 -34,-18 -45,-32 -11,-14 -18,-34 -22,-70 -3,-35 -5,-86 3,-123 8,-37 24,-58 42,-81 17,-22 36,-45 60,-63 25,-17 55,-29 83,-38 27,-10 51,-16 111,-21 59,-5 154,-8 238,-7 83,2 155,8 226,16 71,8 141,16 230,21 88,4 195,4 261,-2 65,-7 89,-20 111,-39 21,-19 40,-44 50,-70 11,-26 15,-52 13,-79 -2,-26 -8,-54 -21,-79 -13,-25 -33,-48 -58,-75 -25,-26 -56,-57 -86,-79 -31,-22 -62,-35 -93,-50 -31,-15 -63,-33 -99,-47 -37,-14 -78,-25 -125,-39 -46,-15 -97,-32 -152,-49 -54,-17 -110,-33 -172,-55 -62,-22 -128,-49 -183,-72 -54,-22 -95,-40 -137,-61 -42,-21 -85,-46 -127,-69 -43,-23 -86,-44 -121,-71 -36,-26 -64,-59 -81,-87 -18,-27 -24,-49 -24,-73 0,-24 6,-50 15,-75 9,-24 19,-47 39,-65 20,-18 48,-31 84,-41 35,-9 78,-14 118,-15 41,0 79,4 118,13 38,10 78,24 113,36 35,13 65,24 100,35 35,12 74,24 109,39 34,15 64,34 97,49 33,14 70,25 104,34 34,9 65,15 108,19 43,4 99,5 137,-4 38,-8 59,-27 72,-53 13,-26 19,-60 16,-89 -3,-29 -14,-53 -31,-79 -18,-27 -42,-55 -73,-85 -32,-30 -71,-62 -121,-97 -49,-36 -108,-75 -212,-137 -104,-63 -254,-148 -390,-218 -137,-71 -260,-126 -356,-168 -96,-42 -163,-71 -253,-105 -89,-34 -201,-73 -287,-101 -86,-29 -148,-46 -209,-65 -62,-18 -124,-38 -175,-54 -51,-16 -90,-28 -140,-40 -50,-13 -110,-26 -190,-33 -81,-7 -183,-8 -256,-5 -73,2 -118,9 -165,19 -46,11 -95,25 -143,39"/>
  <path class="fil0 str0" d="M2561 389c-40,9 -79,18 -110,30 -31,12 -54,26 -76,42 -21,15 -41,33 -56,50 -15,18 -26,35 -31,52 -5,16 -4,32 -2,47"/>
  <path class="fil0 str0" d="M2207 1367c2,17 4,35 16,43 12,8 34,7 60,8 26,1 56,5 86,8"/>
  <path class="fil1 str0" d="M8641 2328c-50,-26 -105,-55 -164,-80 -60,-26 -124,-49 -177,-64 -53,-16 -95,-23 -135,-21 -39,3 -78,16 -102,33 -24,16 -34,36 -40,66 -6,31 -8,72 -5,108 3,35 10,65 23,93 14,29 32,56 63,79 31,23 75,41 143,63 69,21 161,45 240,66 79,22 143,40 201,56 57,15 107,27 149,31 42,3 76,-1 103,-7 27,-7 46,-16 58,-29 11,-13 15,-30 12,-49 -2,-19 -9,-38 -24,-62 -14,-24 -35,-53 -58,-79 -24,-26 -50,-50 -75,-71 -25,-21 -49,-38 -84,-59 -34,-22 -79,-47 -128,-74z"/>
  <path class="fil1 str0" d="M7966 1281c31,6 50,19 69,33 20,14 38,29 54,50 16,22 30,49 36,73 6,23 4,43 -5,62 -9,20 -26,39 -43,56 -17,18 -35,34 -56,46 -21,11 -46,17 -70,16 -24,0 -47,-7 -69,-16 -22,-9 -42,-19 -63,-29 -22,-10 -44,-19 -64,-34 -21,-15 -40,-35 -49,-58 -10,-24 -11,-51 -4,-72 8,-22 24,-39 40,-56 15,-16 29,-33 47,-46 18,-13 40,-23 72,-28 32,-4 74,-4 105,3z"/>
  <path class="fil0 str0" d="M2058 4363c-45,6 -90,13 -135,19"/>
  <path class="fil0 str0" d="M9 4091c0,14 0,28 0,42"/>
  <path class="fil0 str0" d="M488 4054c0,25 0,51 1,76"/>
  <path class="fil0 str0" d="M489 4130c-26,9 -52,18 -80,23 -28,5 -58,7 -90,6 -33,-1 -68,-3 -97,-5 -29,-2 -51,-4 -86,-7 -34,-4 -80,-9 -127,-14"/>
  <path class="fil0 str0" d="M1144 3957c0,83 0,166 0,249"/>
  <path class="fil0 str0" d="M1923 4382c-35,-2 -70,-4 -179,-19 -108,-15 -290,-44 -403,-72 -112,-28 -154,-57 -197,-85"/>
  <path class="fil0 str0" d="M1916 3722c-152,29 -305,58 -413,86 -109,27 -174,53 -226,78 -53,25 -93,48 -133,71"/>
  <path class="fil0 str0" d="M2058 4363c0,-223 1,-446 2,-669"/>
  <path class="fil0 str0" d="M1916 3722c48,-9 96,-19 144,-28"/>
  <path class="fil2 str1" d="M3973 1795c16,39 30,83 46,137 16,54 32,118 41,184 9,66 11,134 12,202l89 1298c-84,14 -167,29 -255,46 -88,18 -179,37 -266,57 -87,20 -169,39 -259,64 -90,24 -189,54 -275,83 -86,30 -159,59 -235,98 -75,38 -152,86 -221,147 -70,61 -131,136 -193,211l-334 540c-38,31 -76,61 -134,76 -58,15 -137,14 -215,13l-1637 -381c-27,-2 -53,-5 -74,-1 -21,5 -35,15 -50,26l0 292c11,9 21,18 37,25 15,6 35,9 55,12l1829 496c40,8 80,15 122,14 42,-1 86,-11 131,-21l585 -221c11,0 22,1 28,10 7,10 9,28 13,45 4,16 9,30 17,44 8,13 17,27 25,40 8,13 13,26 21,41 9,15 20,33 31,48 11,15 23,29 36,43 12,15 24,31 38,45 15,13 33,23 53,34l68 37 705 5c28,-12 55,-23 81,-38 26,-15 50,-35 73,-60 22,-25 44,-56 64,-84 20,-28 37,-53 51,-81 14,-29 25,-60 38,-94 13,-34 27,-70 38,-113 11,-42 18,-91 23,-139 5,-47 7,-93 8,-145 0,-52 -1,-110 -5,-167 -4,-58 -12,-114 -12,-150 1,-35 10,-50 27,-59 17,-9 43,-14 69,-19l2551 -550 63 -27c3,34 6,67 11,100 5,32 12,64 19,90 8,25 16,46 27,71 11,24 24,52 38,77 14,25 28,48 46,72 17,23 36,46 57,62 21,16 43,24 65,32l503 4c18,-16 37,-32 56,-50 20,-19 41,-39 58,-60 17,-21 30,-42 42,-62 12,-21 23,-41 33,-63 9,-23 18,-48 28,-75 10,-27 22,-56 27,-125 5,-68 4,-176 3,-285l34 -2 674 -133c34,-12 68,-25 102,-42 33,-17 65,-39 87,-61 21,-22 32,-44 39,-62 7,-18 10,-32 9,-47 0,-16 -3,-33 -10,-48 -7,-14 -17,-27 -31,-40 -14,-14 -30,-28 -52,-40 -22,-13 -49,-24 -78,-36 -29,-12 -60,-25 -93,-37 -32,-13 -67,-24 -101,-35l-1892 -192c-47,-10 -93,-20 -128,-30 -35,-11 -58,-22 -77,-32 -19,-9 -34,-18 -45,-32 -11,-14 -18,-34 -22,-70 -3,-35 -5,-86 3,-123 8,-37 24,-58 42,-81 17,-22 36,-45 60,-63 25,-17 55,-29 83,-38 27,-10 51,-16 111,-21 59,-5 154,-8 238,-7 83,2 155,8 226,16 71,8 141,16 230,21 88,4 195,4 261,-2 65,-7 89,-20 111,-39 21,-19 40,-44 50,-70 11,-26 15,-52 13,-79 -2,-26 -8,-54 -21,-79 -13,-25 -33,-48 -58,-75 -25,-26 -56,-57 -86,-79 -31,-22 -62,-35 -93,-50 -31,-15 -63,-33 -99,-47 -37,-14 -78,-25 -125,-39 -46,-15 -97,-32 -152,-49 -54,-17 -110,-33 -172,-55 -62,-22 -128,-49 -183,-72 -54,-22 -95,-40 -137,-61 -42,-21 -85,-46 -127,-69 -43,-23 -86,-44 -121,-71 -36,-26 -64,-59 -81,-87 -18,-27 -24,-49 -24,-73 0,-24 6,-50 15,-75 9,-24 19,-47 39,-65 20,-18 48,-31 84,-41 35,-9 78,-14 118,-15 41,0 79,4 118,13 38,10 78,24 113,36 35,13 65,24 100,35 35,12 74,24 109,39 34,15 64,34 97,49 33,14 70,25 104,34 34,9 65,15 108,19 43,4 99,5 137,-4 38,-8 59,-27 72,-53 13,-26 19,-60 16,-89 -3,-29 -14,-53 -31,-79 -18,-27 -42,-55 -73,-85 -32,-30 -71,-62 -121,-97 -49,-36 -108,-75 -212,-137 -104,-63 -254,-148 -390,-218 -137,-71 -260,-126 -356,-168 -96,-42 -163,-71 -253,-105 -89,-34 -201,-73 -287,-101 -86,-29 -148,-46 -209,-65 -62,-18 -124,-38 -175,-54 -51,-16 -90,-28 -140,-40 -50,-13 -110,-26 -190,-33 -81,-7 -183,-8 -256,-5 -73,2 -118,9 -165,19 -46,11 -95,25 -143,39l-1922 320c-40,9 -79,18 -110,30 -31,12 -54,26 -76,42 -21,15 -41,33 -56,50 -15,18 -26,35 -31,52 -5,16 -4,32 -2,47l-79 757c2,17 4,35 16,43 12,8 34,7 60,8 26,1 56,5 86,8l1259 113c40,11 80,23 115,35 36,13 67,26 97,45 29,20 57,46 79,76 22,29 39,62 54,100zm3594 1688c19,-11 41,-19 61,-16 21,2 41,16 57,31 16,15 29,33 41,48 12,15 23,28 33,47 10,20 18,45 26,71 8,26 14,53 17,96 3,43 1,100 -5,144 -6,44 -16,73 -27,103 -10,30 -20,61 -37,86 -18,25 -43,45 -67,55 -24,11 -46,12 -69,5 -22,-7 -44,-23 -63,-41 -19,-19 -35,-41 -49,-69 -14,-29 -26,-63 -33,-116 -7,-52 -8,-122 -5,-179 3,-57 9,-101 21,-135 12,-35 30,-62 47,-82 16,-21 33,-36 52,-48zm-3858 828c27,-19 57,-26 83,-26 26,0 48,7 67,17 19,10 34,23 51,44 17,20 36,48 53,78 16,29 30,60 42,93 13,32 24,66 31,103 8,38 12,80 12,125 -1,45 -6,94 -12,137 -6,44 -14,82 -26,125 -12,43 -28,90 -49,129 -21,38 -47,68 -73,88 -27,20 -55,30 -86,31 -30,1 -63,-7 -96,-28 -33,-22 -67,-57 -90,-96 -23,-39 -36,-83 -46,-171 -10,-89 -17,-224 -14,-310 4,-86 18,-123 33,-159 15,-35 30,-69 50,-101 19,-31 43,-61 70,-79z"/>
  <path class="fil2 str1" d="M3849 1944c-7,-28 -14,-41 -27,-56 -13,-16 -32,-33 -50,-48 -18,-16 -35,-29 -64,-39 -29,-9 -70,-16 -222,-26 -151,-10 -415,-23 -556,-29 -142,-7 -161,-7 -181,-3 -20,3 -39,9 -59,18 -21,9 -41,20 -61,35 -20,15 -38,35 -56,56 -18,20 -36,42 -50,65 -14,23 -25,47 -37,72 -12,24 -25,50 -39,82 -15,33 -30,73 -44,119 -14,46 -27,98 -41,147 -14,50 -28,98 -40,147 -13,48 -24,97 -34,146 -11,49 -21,97 -31,145 -10,49 -21,98 -26,153 -5,54 -4,114 -3,168 0,53 0,100 1,142 1,41 3,77 6,107 3,29 6,52 11,74 5,21 12,41 23,58 12,16 28,31 43,41 16,10 30,17 45,21 15,5 32,7 55,10 24,2 54,6 87,6 33,1 68,-1 230,-21 163,-19 454,-55 625,-77 171,-21 222,-29 260,-39 38,-11 64,-24 85,-39 21,-14 39,-31 56,-48 18,-18 35,-36 52,-58 17,-21 33,-45 46,-68 14,-24 23,-47 30,-75 8,-29 12,-63 14,-123 1,-60 0,-146 -5,-308 -5,-162 -13,-401 -21,-542 -8,-141 -14,-185 -22,-213z"/>
  <path class="fil2 str1" d="M1873 3033l413 -1121c7,-18 14,-35 20,-60 6,-24 10,-54 12,-80 1,-27 0,-49 -2,-66 -3,-17 -7,-29 -17,-38 -9,-8 -25,-12 -42,-15 -17,-3 -36,-4 -55,-6l-1293 138c-29,4 -59,8 -82,18 -24,10 -42,25 -64,47 -22,22 -47,51 -71,81 -24,30 -47,61 -76,102 -29,42 -63,93 -91,138 -29,46 -51,84 -90,153 -39,69 -96,168 -141,250 -44,82 -77,148 -104,204 -27,55 -48,101 -63,143 -15,43 -23,81 -22,101 2,19 12,20 23,21l1656 84c18,-2 36,-4 51,-19 15,-16 26,-45 38,-75z"/>
  <path class="fil2 str1" d="M459 3883c-16,-17 -39,-40 -75,-69 -36,-28 -86,-63 -112,-79 -26,-16 -28,-15 -51,-25 -24,-10 -70,-32 -116,-54l-96 -3 0 438 0 42c47,5 93,10 127,14 35,3 57,5 86,7 29,2 64,4 97,5 32,1 62,-1 90,-6 28,-5 54,-14 80,-23l-1 -76 0 -131c-7,-11 -14,-23 -29,-40z"/>
  <path class="fil2 str1" d="M1277 3886c-53,25 -93,48 -133,71l0 249c43,28 85,57 197,85 113,28 295,57 403,72 109,15 144,17 179,19l135 -19 2 -669 -144 28c-152,29 -305,58 -413,86 -109,27 -174,53 -226,78z"/>
  <path class="fil2 str1" d="M7702 1408c-7,21 -6,48 4,72 9,23 28,43 49,58 20,15 42,24 64,34 21,10 41,20 63,29 22,9 45,16 69,16 24,1 49,-5 70,-16 21,-12 39,-28 56,-46 17,-17 34,-36 43,-56 9,-19 11,-39 5,-62 -6,-24 -20,-51 -36,-73 -16,-21 -34,-36 -54,-50 -19,-14 -38,-27 -69,-33 -31,-7 -73,-7 -105,-3 -32,5 -54,15 -72,28 -18,13 -32,30 -47,46 -16,17 -32,34 -40,56z"/>
  <path class="fil2 str1" d="M8300 2184c-53,-16 -95,-23 -135,-21 -39,3 -78,16 -102,33 -24,16 -34,36 -40,66 -6,31 -8,72 -5,108 3,35 10,65 23,93 14,29 32,56 63,79 31,23 75,41 143,63 69,21 161,45 240,66 79,22 143,40 201,56 57,15 107,27 149,31 42,3 76,-1 103,-7 27,-7 46,-16 58,-29 11,-13 15,-30 12,-49 -2,-19 -9,-38 -24,-62 -14,-24 -35,-53 -58,-79 -24,-26 -50,-50 -75,-71 -25,-21 -49,-38 -84,-59 -34,-22 -79,-47 -128,-74 -50,-26 -105,-55 -164,-80 -60,-26 -124,-49 -177,-64z"/>
 </g>
</svg>
